<?xml version="1.0" encoding="UTF-8" standalone="no"?>
<!DOCTYPE svg PUBLIC "-//W3C//DTD SVG 1.1//EN"
 "http://www.w3.org/Graphics/SVG/1.1/DTD/svg11.dtd">
<!-- Generated by graphviz version 2.26.3 (20100126.1600)
 -->
<!-- Title: snakemake_dag Pages: 1 -->
<svg width="437pt" height="1052pt"
 viewBox="0.00 0.00 437.00 1052.00" xmlns="http://www.w3.org/2000/svg" xmlns:xlink="http://www.w3.org/1999/xlink">
<g id="graph1" class="graph" transform="scale(1 1) rotate(0) translate(4 1048)">
<title>snakemake_dag</title>
<polygon fill="white" stroke="white" points="-4,5 -4,-1048 434,-1048 434,5 -4,5"/>
<!-- 0 -->
<g id="node1" class="node"><title>0</title>
<polyline fill="none" stroke="#d8d356" stroke-width="2" points="322,-468 230,-468 "/>
<path fill="none" stroke="#d8d356" stroke-width="2" d="M230,-468C224,-468 218,-462 218,-456"/>
<polyline fill="none" stroke="#d8d356" stroke-width="2" points="218,-456 218,-444 "/>
<path fill="none" stroke="#d8d356" stroke-width="2" d="M218,-444C218,-438 224,-432 230,-432"/>
<polyline fill="none" stroke="#d8d356" stroke-width="2" points="230,-432 322,-432 "/>
<path fill="none" stroke="#d8d356" stroke-width="2" d="M322,-432C328,-432 334,-438 334,-444"/>
<polyline fill="none" stroke="#d8d356" stroke-width="2" points="334,-444 334,-456 "/>
<path fill="none" stroke="#d8d356" stroke-width="2" d="M334,-456C334,-462 328,-468 322,-468"/>
<text text-anchor="middle" x="276" y="-447.5" font-family="sans" font-size="10.00">filter_properly_paired</text>
</g>
<!-- 13 -->
<g id="node14" class="node"><title>13</title>
<polyline fill="none" stroke="#56d0d8" stroke-width="2" points="322,-396 230,-396 "/>
<path fill="none" stroke="#56d0d8" stroke-width="2" d="M230,-396C224,-396 218,-390 218,-384"/>
<polyline fill="none" stroke="#56d0d8" stroke-width="2" points="218,-384 218,-372 "/>
<path fill="none" stroke="#56d0d8" stroke-width="2" d="M218,-372C218,-366 224,-360 230,-360"/>
<polyline fill="none" stroke="#56d0d8" stroke-width="2" points="230,-360 322,-360 "/>
<path fill="none" stroke="#56d0d8" stroke-width="2" d="M322,-360C328,-360 334,-366 334,-372"/>
<polyline fill="none" stroke="#56d0d8" stroke-width="2" points="334,-372 334,-384 "/>
<path fill="none" stroke="#56d0d8" stroke-width="2" d="M334,-384C334,-390 328,-396 322,-396"/>
<text text-anchor="middle" x="276" y="-375.5" font-family="sans" font-size="10.00">remove_bwa_header</text>
</g>
<!-- 0&#45;&gt;13 -->
<g id="edge30" class="edge"><title>0&#45;&gt;13</title>
<path fill="none" stroke="grey" stroke-width="2" d="M276,-431.831C276,-424.131 276,-414.974 276,-406.417"/>
<polygon fill="grey" stroke="grey" points="279.5,-406.413 276,-396.413 272.5,-406.413 279.5,-406.413"/>
</g>
<!-- 1 -->
<g id="node2" class="node"><title>1</title>
<polyline fill="none" stroke="#88d856" stroke-width="2" points="339,-756 233,-756 "/>
<path fill="none" stroke="#88d856" stroke-width="2" d="M233,-756C227,-756 221,-750 221,-744"/>
<polyline fill="none" stroke="#88d856" stroke-width="2" points="221,-744 221,-732 "/>
<path fill="none" stroke="#88d856" stroke-width="2" d="M221,-732C221,-726 227,-720 233,-720"/>
<polyline fill="none" stroke="#88d856" stroke-width="2" points="233,-720 339,-720 "/>
<path fill="none" stroke="#88d856" stroke-width="2" d="M339,-720C345,-720 351,-726 351,-732"/>
<polyline fill="none" stroke="#88d856" stroke-width="2" points="351,-732 351,-744 "/>
<path fill="none" stroke="#88d856" stroke-width="2" d="M351,-744C351,-750 345,-756 339,-756"/>
<text text-anchor="middle" x="286" y="-735.5" font-family="sans" font-size="10.00">rename_trimmed_fastq</text>
</g>
<!-- 7 -->
<g id="node8" class="node"><title>7</title>
<polyline fill="none" stroke="#56d8a2" stroke-width="2" points="309,-684 263,-684 "/>
<path fill="none" stroke="#56d8a2" stroke-width="2" d="M263,-684C257,-684 251,-678 251,-672"/>
<polyline fill="none" stroke="#56d8a2" stroke-width="2" points="251,-672 251,-660 "/>
<path fill="none" stroke="#56d8a2" stroke-width="2" d="M251,-660C251,-654 257,-648 263,-648"/>
<polyline fill="none" stroke="#56d8a2" stroke-width="2" points="263,-648 309,-648 "/>
<path fill="none" stroke="#56d8a2" stroke-width="2" d="M309,-648C315,-648 321,-654 321,-660"/>
<polyline fill="none" stroke="#56d8a2" stroke-width="2" points="321,-660 321,-672 "/>
<path fill="none" stroke="#56d8a2" stroke-width="2" d="M321,-672C321,-678 315,-684 309,-684"/>
<text text-anchor="middle" x="286" y="-663.5" font-family="sans" font-size="10.00">align_reads</text>
</g>
<!-- 1&#45;&gt;7 -->
<g id="edge20" class="edge"><title>1&#45;&gt;7</title>
<path fill="none" stroke="grey" stroke-width="2" d="M286,-719.831C286,-712.131 286,-702.974 286,-694.417"/>
<polygon fill="grey" stroke="grey" points="289.5,-694.413 286,-684.413 282.5,-694.413 289.5,-694.413"/>
</g>
<!-- 2 -->
<g id="node3" class="node"><title>2</title>
<polyline fill="none" stroke="#d87556" stroke-width="2" stroke-dasharray="5,2" points="173,-324 91,-324 "/>
<path fill="none" stroke="#d87556" stroke-width="2" stroke-dasharray="5,2" d="M91,-324C85,-324 79,-318 79,-312"/>
<polyline fill="none" stroke="#d87556" stroke-width="2" stroke-dasharray="5,2" points="79,-312 79,-300 "/>
<path fill="none" stroke="#d87556" stroke-width="2" stroke-dasharray="5,2" d="M79,-300C79,-294 85,-288 91,-288"/>
<polyline fill="none" stroke="#d87556" stroke-width="2" stroke-dasharray="5,2" points="91,-288 173,-288 "/>
<path fill="none" stroke="#d87556" stroke-width="2" stroke-dasharray="5,2" d="M173,-288C179,-288 185,-294 185,-300"/>
<polyline fill="none" stroke="#d87556" stroke-width="2" stroke-dasharray="5,2" points="185,-300 185,-312 "/>
<path fill="none" stroke="#d87556" stroke-width="2" stroke-dasharray="5,2" d="M185,-312C185,-318 179,-324 173,-324"/>
<text text-anchor="middle" x="132" y="-303.5" font-family="sans" font-size="10.00">remove_duplicates</text>
</g>
<!-- 14 -->
<g id="node15" class="node"><title>14</title>
<polyline fill="none" stroke="#d89556" stroke-width="2" stroke-dasharray="5,2" points="178,-252 86,-252 "/>
<path fill="none" stroke="#d89556" stroke-width="2" stroke-dasharray="5,2" d="M86,-252C80,-252 74,-246 74,-240"/>
<polyline fill="none" stroke="#d89556" stroke-width="2" stroke-dasharray="5,2" points="74,-240 74,-228 "/>
<path fill="none" stroke="#d89556" stroke-width="2" stroke-dasharray="5,2" d="M74,-228C74,-222 80,-216 86,-216"/>
<polyline fill="none" stroke="#d89556" stroke-width="2" stroke-dasharray="5,2" points="86,-216 178,-216 "/>
<path fill="none" stroke="#d89556" stroke-width="2" stroke-dasharray="5,2" d="M178,-216C184,-216 190,-222 190,-228"/>
<polyline fill="none" stroke="#d89556" stroke-width="2" stroke-dasharray="5,2" points="190,-228 190,-240 "/>
<path fill="none" stroke="#d89556" stroke-width="2" stroke-dasharray="5,2" d="M190,-240C190,-246 184,-252 178,-252"/>
<text text-anchor="middle" x="132" y="-231.5" font-family="sans" font-size="10.00">sort_bams_by_name</text>
</g>
<!-- 2&#45;&gt;14 -->
<g id="edge32" class="edge"><title>2&#45;&gt;14</title>
<path fill="none" stroke="grey" stroke-width="2" d="M132,-287.831C132,-280.131 132,-270.974 132,-262.417"/>
<polygon fill="grey" stroke="grey" points="135.5,-262.413 132,-252.413 128.5,-262.413 135.5,-262.413"/>
</g>
<!-- 3 -->
<g id="node4" class="node"><title>3</title>
<polyline fill="none" stroke="#d8b456" stroke-width="2" points="330,-540 280,-540 "/>
<path fill="none" stroke="#d8b456" stroke-width="2" d="M280,-540C274,-540 268,-534 268,-528"/>
<polyline fill="none" stroke="#d8b456" stroke-width="2" points="268,-528 268,-516 "/>
<path fill="none" stroke="#d8b456" stroke-width="2" d="M268,-516C268,-510 274,-504 280,-504"/>
<polyline fill="none" stroke="#d8b456" stroke-width="2" points="280,-504 330,-504 "/>
<path fill="none" stroke="#d8b456" stroke-width="2" d="M330,-504C336,-504 342,-510 342,-516"/>
<polyline fill="none" stroke="#d8b456" stroke-width="2" points="342,-516 342,-528 "/>
<path fill="none" stroke="#d8b456" stroke-width="2" d="M342,-528C342,-534 336,-540 330,-540"/>
<text text-anchor="middle" x="305" y="-519.5" font-family="sans" font-size="10.00">index_bams</text>
</g>
<!-- 3&#45;&gt;0 -->
<g id="edge2" class="edge"><title>3&#45;&gt;0</title>
<path fill="none" stroke="grey" stroke-width="2" d="M297.682,-503.831C294.512,-495.962 290.73,-486.571 287.219,-477.853"/>
<polygon fill="grey" stroke="grey" points="290.399,-476.381 283.416,-468.413 283.906,-478.997 290.399,-476.381"/>
</g>
<!-- 4 -->
<g id="node5" class="node"><title>4</title>
<polyline fill="none" stroke="#56d863" stroke-width="2" points="325,-108 225,-108 "/>
<path fill="none" stroke="#56d863" stroke-width="2" d="M225,-108C219,-108 213,-102 213,-96"/>
<polyline fill="none" stroke="#56d863" stroke-width="2" points="213,-96 213,-84 "/>
<path fill="none" stroke="#56d863" stroke-width="2" d="M213,-84C213,-78 219,-72 225,-72"/>
<polyline fill="none" stroke="#56d863" stroke-width="2" points="225,-72 325,-72 "/>
<path fill="none" stroke="#56d863" stroke-width="2" d="M325,-72C331,-72 337,-78 337,-84"/>
<polyline fill="none" stroke="#56d863" stroke-width="2" points="337,-84 337,-96 "/>
<path fill="none" stroke="#56d863" stroke-width="2" d="M337,-96C337,-102 331,-108 325,-108"/>
<text text-anchor="middle" x="275" y="-87.5" font-family="sans" font-size="10.00">convert_bed_to_bigwig</text>
</g>
<!-- 18 -->
<g id="node19" class="node"><title>18</title>
<polyline fill="none" stroke="#bed856" stroke-width="2" points="241,-36 167,-36 "/>
<path fill="none" stroke="#bed856" stroke-width="2" d="M167,-36C161,-36 155,-30 155,-24"/>
<polyline fill="none" stroke="#bed856" stroke-width="2" points="155,-24 155,-12 "/>
<path fill="none" stroke="#bed856" stroke-width="2" d="M155,-12C155,-6 161,-1.68935e-14 167,-1.60235e-14"/>
<polyline fill="none" stroke="#bed856" stroke-width="2" points="167,-1.60235e-14 241,-5.29282e-15 "/>
<path fill="none" stroke="#bed856" stroke-width="2" d="M241,-5.29282e-15C247,-4.42277e-15 253,-6 253,-12"/>
<polyline fill="none" stroke="#bed856" stroke-width="2" points="253,-12 253,-24 "/>
<path fill="none" stroke="#bed856" stroke-width="2" d="M253,-24C253,-30 247,-36 241,-36"/>
<text text-anchor="middle" x="204" y="-15.5" font-family="sans" font-size="10.00">make_all_bigwigs</text>
</g>
<!-- 4&#45;&gt;18 -->
<g id="edge40" class="edge"><title>4&#45;&gt;18</title>
<path fill="none" stroke="grey" stroke-width="2" d="M257.084,-71.8314C248.656,-63.2848 238.459,-52.9443 229.264,-43.6198"/>
<polygon fill="grey" stroke="grey" points="231.671,-41.0761 222.158,-36.4133 226.687,-45.9912 231.671,-41.0761"/>
</g>
<!-- 5 -->
<g id="node6" class="node"><title>5</title>
<polyline fill="none" stroke="#5692d8" stroke-width="2" points="316,-828 256,-828 "/>
<path fill="none" stroke="#5692d8" stroke-width="2" d="M256,-828C250,-828 244,-822 244,-816"/>
<polyline fill="none" stroke="#5692d8" stroke-width="2" points="244,-816 244,-804 "/>
<path fill="none" stroke="#5692d8" stroke-width="2" d="M244,-804C244,-798 250,-792 256,-792"/>
<polyline fill="none" stroke="#5692d8" stroke-width="2" points="256,-792 316,-792 "/>
<path fill="none" stroke="#5692d8" stroke-width="2" d="M316,-792C322,-792 328,-798 328,-804"/>
<polyline fill="none" stroke="#5692d8" stroke-width="2" points="328,-804 328,-816 "/>
<path fill="none" stroke="#5692d8" stroke-width="2" d="M328,-816C328,-822 322,-828 316,-828"/>
<text text-anchor="middle" x="286" y="-807.5" font-family="sans" font-size="10.00">trim_adapters</text>
</g>
<!-- 5&#45;&gt;1 -->
<g id="edge6" class="edge"><title>5&#45;&gt;1</title>
<path fill="none" stroke="grey" stroke-width="2" d="M286,-791.831C286,-784.131 286,-774.974 286,-766.417"/>
<polygon fill="grey" stroke="grey" points="289.5,-766.413 286,-756.413 282.5,-766.413 289.5,-766.413"/>
</g>
<!-- 6 -->
<g id="node7" class="node"><title>6</title>
<polyline fill="none" stroke="#d89556" stroke-width="2" points="322,-252 230,-252 "/>
<path fill="none" stroke="#d89556" stroke-width="2" d="M230,-252C224,-252 218,-246 218,-240"/>
<polyline fill="none" stroke="#d89556" stroke-width="2" points="218,-240 218,-228 "/>
<path fill="none" stroke="#d89556" stroke-width="2" d="M218,-228C218,-222 224,-216 230,-216"/>
<polyline fill="none" stroke="#d89556" stroke-width="2" points="230,-216 322,-216 "/>
<path fill="none" stroke="#d89556" stroke-width="2" d="M322,-216C328,-216 334,-222 334,-228"/>
<polyline fill="none" stroke="#d89556" stroke-width="2" points="334,-228 334,-240 "/>
<path fill="none" stroke="#d89556" stroke-width="2" d="M334,-240C334,-246 328,-252 322,-252"/>
<text text-anchor="middle" x="276" y="-231.5" font-family="sans" font-size="10.00">sort_bams_by_name</text>
</g>
<!-- 17 -->
<g id="node18" class="node"><title>17</title>
<polyline fill="none" stroke="#d85656" stroke-width="2" points="327,-180 225,-180 "/>
<path fill="none" stroke="#d85656" stroke-width="2" d="M225,-180C219,-180 213,-174 213,-168"/>
<polyline fill="none" stroke="#d85656" stroke-width="2" points="213,-168 213,-156 "/>
<path fill="none" stroke="#d85656" stroke-width="2" d="M213,-156C213,-150 219,-144 225,-144"/>
<polyline fill="none" stroke="#d85656" stroke-width="2" points="225,-144 327,-144 "/>
<path fill="none" stroke="#d85656" stroke-width="2" d="M327,-144C333,-144 339,-150 339,-156"/>
<polyline fill="none" stroke="#d85656" stroke-width="2" points="339,-156 339,-168 "/>
<path fill="none" stroke="#d85656" stroke-width="2" d="M339,-168C339,-174 333,-180 327,-180"/>
<text text-anchor="middle" x="276" y="-159.5" font-family="sans" font-size="10.00">bam_to_fragment_bed</text>
</g>
<!-- 6&#45;&gt;17 -->
<g id="edge38" class="edge"><title>6&#45;&gt;17</title>
<path fill="none" stroke="grey" stroke-width="2" d="M276,-215.831C276,-208.131 276,-198.974 276,-190.417"/>
<polygon fill="grey" stroke="grey" points="279.5,-190.413 276,-180.413 272.5,-190.413 279.5,-190.413"/>
</g>
<!-- 20 -->
<g id="node21" class="node"><title>20</title>
<polyline fill="none" stroke="#56d8c1" stroke-width="2" points="337,-612 235,-612 "/>
<path fill="none" stroke="#56d8c1" stroke-width="2" d="M235,-612C229,-612 223,-606 223,-600"/>
<polyline fill="none" stroke="#56d8c1" stroke-width="2" points="223,-600 223,-588 "/>
<path fill="none" stroke="#56d8c1" stroke-width="2" d="M223,-588C223,-582 229,-576 235,-576"/>
<polyline fill="none" stroke="#56d8c1" stroke-width="2" points="235,-576 337,-576 "/>
<path fill="none" stroke="#56d8c1" stroke-width="2" d="M337,-576C343,-576 349,-582 349,-588"/>
<polyline fill="none" stroke="#56d8c1" stroke-width="2" points="349,-588 349,-600 "/>
<path fill="none" stroke="#56d8c1" stroke-width="2" d="M349,-600C349,-606 343,-612 337,-612"/>
<text text-anchor="middle" x="286" y="-591.5" font-family="sans" font-size="10.00">sort_bams_by_position</text>
</g>
<!-- 7&#45;&gt;20 -->
<g id="edge46" class="edge"><title>7&#45;&gt;20</title>
<path fill="none" stroke="grey" stroke-width="2" d="M286,-647.831C286,-640.131 286,-630.974 286,-622.417"/>
<polygon fill="grey" stroke="grey" points="289.5,-622.413 286,-612.413 282.5,-622.413 289.5,-622.413"/>
</g>
<!-- 8 -->
<g id="node9" class="node"><title>8</title>
<polyline fill="none" stroke="#d8d356" stroke-width="2" stroke-dasharray="5,2" points="178,-468 86,-468 "/>
<path fill="none" stroke="#d8d356" stroke-width="2" stroke-dasharray="5,2" d="M86,-468C80,-468 74,-462 74,-456"/>
<polyline fill="none" stroke="#d8d356" stroke-width="2" stroke-dasharray="5,2" points="74,-456 74,-444 "/>
<path fill="none" stroke="#d8d356" stroke-width="2" stroke-dasharray="5,2" d="M74,-444C74,-438 80,-432 86,-432"/>
<polyline fill="none" stroke="#d8d356" stroke-width="2" stroke-dasharray="5,2" points="86,-432 178,-432 "/>
<path fill="none" stroke="#d8d356" stroke-width="2" stroke-dasharray="5,2" d="M178,-432C184,-432 190,-438 190,-444"/>
<polyline fill="none" stroke="#d8d356" stroke-width="2" stroke-dasharray="5,2" points="190,-444 190,-456 "/>
<path fill="none" stroke="#d8d356" stroke-width="2" stroke-dasharray="5,2" d="M190,-456C190,-462 184,-468 178,-468"/>
<text text-anchor="middle" x="132" y="-447.5" font-family="sans" font-size="10.00">filter_properly_paired</text>
</g>
<!-- 16 -->
<g id="node17" class="node"><title>16</title>
<polyline fill="none" stroke="#56d0d8" stroke-width="2" stroke-dasharray="5,2" points="178,-396 86,-396 "/>
<path fill="none" stroke="#56d0d8" stroke-width="2" stroke-dasharray="5,2" d="M86,-396C80,-396 74,-390 74,-384"/>
<polyline fill="none" stroke="#56d0d8" stroke-width="2" stroke-dasharray="5,2" points="74,-384 74,-372 "/>
<path fill="none" stroke="#56d0d8" stroke-width="2" stroke-dasharray="5,2" d="M74,-372C74,-366 80,-360 86,-360"/>
<polyline fill="none" stroke="#56d0d8" stroke-width="2" stroke-dasharray="5,2" points="86,-360 178,-360 "/>
<path fill="none" stroke="#56d0d8" stroke-width="2" stroke-dasharray="5,2" d="M178,-360C184,-360 190,-366 190,-372"/>
<polyline fill="none" stroke="#56d0d8" stroke-width="2" stroke-dasharray="5,2" points="190,-372 190,-384 "/>
<path fill="none" stroke="#56d0d8" stroke-width="2" stroke-dasharray="5,2" d="M190,-384C190,-390 184,-396 178,-396"/>
<text text-anchor="middle" x="132" y="-375.5" font-family="sans" font-size="10.00">remove_bwa_header</text>
</g>
<!-- 8&#45;&gt;16 -->
<g id="edge36" class="edge"><title>8&#45;&gt;16</title>
<path fill="none" stroke="grey" stroke-width="2" d="M132,-431.831C132,-424.131 132,-414.974 132,-406.417"/>
<polygon fill="grey" stroke="grey" points="135.5,-406.413 132,-396.413 128.5,-406.413 135.5,-406.413"/>
</g>
<!-- 9 -->
<g id="node10" class="node"><title>9</title>
<polyline fill="none" stroke="#d85656" stroke-width="2" stroke-dasharray="5,2" points="183,-180 81,-180 "/>
<path fill="none" stroke="#d85656" stroke-width="2" stroke-dasharray="5,2" d="M81,-180C75,-180 69,-174 69,-168"/>
<polyline fill="none" stroke="#d85656" stroke-width="2" stroke-dasharray="5,2" points="69,-168 69,-156 "/>
<path fill="none" stroke="#d85656" stroke-width="2" stroke-dasharray="5,2" d="M69,-156C69,-150 75,-144 81,-144"/>
<polyline fill="none" stroke="#d85656" stroke-width="2" stroke-dasharray="5,2" points="81,-144 183,-144 "/>
<path fill="none" stroke="#d85656" stroke-width="2" stroke-dasharray="5,2" d="M183,-144C189,-144 195,-150 195,-156"/>
<polyline fill="none" stroke="#d85656" stroke-width="2" stroke-dasharray="5,2" points="195,-156 195,-168 "/>
<path fill="none" stroke="#d85656" stroke-width="2" stroke-dasharray="5,2" d="M195,-168C195,-174 189,-180 183,-180"/>
<text text-anchor="middle" x="132" y="-159.5" font-family="sans" font-size="10.00">bam_to_fragment_bed</text>
</g>
<!-- 26 -->
<g id="node27" class="node"><title>26</title>
<polyline fill="none" stroke="#56d863" stroke-width="2" points="183,-108 83,-108 "/>
<path fill="none" stroke="#56d863" stroke-width="2" d="M83,-108C77,-108 71,-102 71,-96"/>
<polyline fill="none" stroke="#56d863" stroke-width="2" points="71,-96 71,-84 "/>
<path fill="none" stroke="#56d863" stroke-width="2" d="M71,-84C71,-78 77,-72 83,-72"/>
<polyline fill="none" stroke="#56d863" stroke-width="2" points="83,-72 183,-72 "/>
<path fill="none" stroke="#56d863" stroke-width="2" d="M183,-72C189,-72 195,-78 195,-84"/>
<polyline fill="none" stroke="#56d863" stroke-width="2" points="195,-84 195,-96 "/>
<path fill="none" stroke="#56d863" stroke-width="2" d="M195,-96C195,-102 189,-108 183,-108"/>
<text text-anchor="middle" x="133" y="-87.5" font-family="sans" font-size="10.00">convert_bed_to_bigwig</text>
</g>
<!-- 9&#45;&gt;26 -->
<g id="edge60" class="edge"><title>9&#45;&gt;26</title>
<path fill="none" stroke="grey" stroke-width="2" d="M132.252,-143.831C132.359,-136.131 132.486,-126.974 132.605,-118.417"/>
<polygon fill="grey" stroke="grey" points="136.105,-118.461 132.744,-108.413 129.106,-118.364 136.105,-118.461"/>
</g>
<!-- 10 -->
<g id="node11" class="node"><title>10</title>
<polyline fill="none" stroke="#5673d8" stroke-width="2" stroke-dasharray="5,2" points="180,-1044 86,-1044 "/>
<path fill="none" stroke="#5673d8" stroke-width="2" stroke-dasharray="5,2" d="M86,-1044C80,-1044 74,-1038 74,-1032"/>
<polyline fill="none" stroke="#5673d8" stroke-width="2" stroke-dasharray="5,2" points="74,-1032 74,-1020 "/>
<path fill="none" stroke="#5673d8" stroke-width="2" stroke-dasharray="5,2" d="M74,-1020C74,-1014 80,-1008 86,-1008"/>
<polyline fill="none" stroke="#5673d8" stroke-width="2" stroke-dasharray="5,2" points="86,-1008 180,-1008 "/>
<path fill="none" stroke="#5673d8" stroke-width="2" stroke-dasharray="5,2" d="M180,-1008C186,-1008 192,-1014 192,-1020"/>
<polyline fill="none" stroke="#5673d8" stroke-width="2" stroke-dasharray="5,2" points="192,-1020 192,-1032 "/>
<path fill="none" stroke="#5673d8" stroke-width="2" stroke-dasharray="5,2" d="M192,-1032C192,-1038 186,-1044 180,-1044"/>
<text text-anchor="middle" x="133" y="-1030" font-family="sans" font-size="10.00">SRA_to_fastq</text>
<text text-anchor="middle" x="133" y="-1017" font-family="sans" font-size="10.00">sample: HSC_4983_1</text>
</g>
<!-- 28 -->
<g id="node29" class="node"><title>28</title>
<polyline fill="none" stroke="#9fd856" stroke-width="2" stroke-dasharray="5,2" points="162,-972 104,-972 "/>
<path fill="none" stroke="#9fd856" stroke-width="2" stroke-dasharray="5,2" d="M104,-972C98,-972 92,-966 92,-960"/>
<polyline fill="none" stroke="#9fd856" stroke-width="2" stroke-dasharray="5,2" points="92,-960 92,-948 "/>
<path fill="none" stroke="#9fd856" stroke-width="2" stroke-dasharray="5,2" d="M92,-948C92,-942 98,-936 104,-936"/>
<polyline fill="none" stroke="#9fd856" stroke-width="2" stroke-dasharray="5,2" points="104,-936 162,-936 "/>
<path fill="none" stroke="#9fd856" stroke-width="2" stroke-dasharray="5,2" d="M162,-936C168,-936 174,-942 174,-948"/>
<polyline fill="none" stroke="#9fd856" stroke-width="2" stroke-dasharray="5,2" points="174,-948 174,-960 "/>
<path fill="none" stroke="#9fd856" stroke-width="2" stroke-dasharray="5,2" d="M174,-960C174,-966 168,-972 162,-972"/>
<text text-anchor="middle" x="133" y="-951.5" font-family="sans" font-size="10.00">rename_fastq</text>
</g>
<!-- 10&#45;&gt;28 -->
<g id="edge64" class="edge"><title>10&#45;&gt;28</title>
<path fill="none" stroke="grey" stroke-width="2" d="M133,-1007.83C133,-1000.13 133,-990.974 133,-982.417"/>
<polygon fill="grey" stroke="grey" points="136.5,-982.413 133,-972.413 129.5,-982.413 136.5,-982.413"/>
</g>
<!-- 11 -->
<g id="node12" class="node"><title>11</title>
<polyline fill="none" stroke="#56d8a2" stroke-width="2" stroke-dasharray="5,2" points="138,-684 92,-684 "/>
<path fill="none" stroke="#56d8a2" stroke-width="2" stroke-dasharray="5,2" d="M92,-684C86,-684 80,-678 80,-672"/>
<polyline fill="none" stroke="#56d8a2" stroke-width="2" stroke-dasharray="5,2" points="80,-672 80,-660 "/>
<path fill="none" stroke="#56d8a2" stroke-width="2" stroke-dasharray="5,2" d="M80,-660C80,-654 86,-648 92,-648"/>
<polyline fill="none" stroke="#56d8a2" stroke-width="2" stroke-dasharray="5,2" points="92,-648 138,-648 "/>
<path fill="none" stroke="#56d8a2" stroke-width="2" stroke-dasharray="5,2" d="M138,-648C144,-648 150,-654 150,-660"/>
<polyline fill="none" stroke="#56d8a2" stroke-width="2" stroke-dasharray="5,2" points="150,-660 150,-672 "/>
<path fill="none" stroke="#56d8a2" stroke-width="2" stroke-dasharray="5,2" d="M150,-672C150,-678 144,-684 138,-684"/>
<text text-anchor="middle" x="115" y="-663.5" font-family="sans" font-size="10.00">align_reads</text>
</g>
<!-- 24 -->
<g id="node25" class="node"><title>24</title>
<polyline fill="none" stroke="#56d8c1" stroke-width="2" stroke-dasharray="5,2" points="166,-612 64,-612 "/>
<path fill="none" stroke="#56d8c1" stroke-width="2" stroke-dasharray="5,2" d="M64,-612C58,-612 52,-606 52,-600"/>
<polyline fill="none" stroke="#56d8c1" stroke-width="2" stroke-dasharray="5,2" points="52,-600 52,-588 "/>
<path fill="none" stroke="#56d8c1" stroke-width="2" stroke-dasharray="5,2" d="M52,-588C52,-582 58,-576 64,-576"/>
<polyline fill="none" stroke="#56d8c1" stroke-width="2" stroke-dasharray="5,2" points="64,-576 166,-576 "/>
<path fill="none" stroke="#56d8c1" stroke-width="2" stroke-dasharray="5,2" d="M166,-576C172,-576 178,-582 178,-588"/>
<polyline fill="none" stroke="#56d8c1" stroke-width="2" stroke-dasharray="5,2" points="178,-588 178,-600 "/>
<path fill="none" stroke="#56d8c1" stroke-width="2" stroke-dasharray="5,2" d="M178,-600C178,-606 172,-612 166,-612"/>
<text text-anchor="middle" x="115" y="-591.5" font-family="sans" font-size="10.00">sort_bams_by_position</text>
</g>
<!-- 11&#45;&gt;24 -->
<g id="edge54" class="edge"><title>11&#45;&gt;24</title>
<path fill="none" stroke="grey" stroke-width="2" d="M115,-647.831C115,-640.131 115,-630.974 115,-622.417"/>
<polygon fill="grey" stroke="grey" points="118.5,-622.413 115,-612.413 111.5,-622.413 118.5,-622.413"/>
</g>
<!-- 12 -->
<g id="node13" class="node"><title>12</title>
<polyline fill="none" stroke="#5673d8" stroke-width="2" points="343,-1044 247,-1044 "/>
<path fill="none" stroke="#5673d8" stroke-width="2" d="M247,-1044C241,-1044 235,-1038 235,-1032"/>
<polyline fill="none" stroke="#5673d8" stroke-width="2" points="235,-1032 235,-1020 "/>
<path fill="none" stroke="#5673d8" stroke-width="2" d="M235,-1020C235,-1014 241,-1008 247,-1008"/>
<polyline fill="none" stroke="#5673d8" stroke-width="2" points="247,-1008 343,-1008 "/>
<path fill="none" stroke="#5673d8" stroke-width="2" d="M343,-1008C349,-1008 355,-1014 355,-1020"/>
<polyline fill="none" stroke="#5673d8" stroke-width="2" points="355,-1020 355,-1032 "/>
<path fill="none" stroke="#5673d8" stroke-width="2" d="M355,-1032C355,-1038 349,-1044 343,-1044"/>
<text text-anchor="middle" x="295" y="-1030" font-family="sans" font-size="10.00">SRA_to_fastq</text>
<text text-anchor="middle" x="295" y="-1017" font-family="sans" font-size="10.00">sample: Bcell_1022_1</text>
</g>
<!-- 22 -->
<g id="node23" class="node"><title>22</title>
<polyline fill="none" stroke="#9fd856" stroke-width="2" points="324,-972 266,-972 "/>
<path fill="none" stroke="#9fd856" stroke-width="2" d="M266,-972C260,-972 254,-966 254,-960"/>
<polyline fill="none" stroke="#9fd856" stroke-width="2" points="254,-960 254,-948 "/>
<path fill="none" stroke="#9fd856" stroke-width="2" d="M254,-948C254,-942 260,-936 266,-936"/>
<polyline fill="none" stroke="#9fd856" stroke-width="2" points="266,-936 324,-936 "/>
<path fill="none" stroke="#9fd856" stroke-width="2" d="M324,-936C330,-936 336,-942 336,-948"/>
<polyline fill="none" stroke="#9fd856" stroke-width="2" points="336,-948 336,-960 "/>
<path fill="none" stroke="#9fd856" stroke-width="2" d="M336,-960C336,-966 330,-972 324,-972"/>
<text text-anchor="middle" x="295" y="-951.5" font-family="sans" font-size="10.00">rename_fastq</text>
</g>
<!-- 12&#45;&gt;22 -->
<g id="edge50" class="edge"><title>12&#45;&gt;22</title>
<path fill="none" stroke="grey" stroke-width="2" d="M295,-1007.83C295,-1000.13 295,-990.974 295,-982.417"/>
<polygon fill="grey" stroke="grey" points="298.5,-982.413 295,-972.413 291.5,-982.413 298.5,-982.413"/>
</g>
<!-- 21 -->
<g id="node22" class="node"><title>21</title>
<polyline fill="none" stroke="#d87556" stroke-width="2" points="317,-324 235,-324 "/>
<path fill="none" stroke="#d87556" stroke-width="2" d="M235,-324C229,-324 223,-318 223,-312"/>
<polyline fill="none" stroke="#d87556" stroke-width="2" points="223,-312 223,-300 "/>
<path fill="none" stroke="#d87556" stroke-width="2" d="M223,-300C223,-294 229,-288 235,-288"/>
<polyline fill="none" stroke="#d87556" stroke-width="2" points="235,-288 317,-288 "/>
<path fill="none" stroke="#d87556" stroke-width="2" d="M317,-288C323,-288 329,-294 329,-300"/>
<polyline fill="none" stroke="#d87556" stroke-width="2" points="329,-300 329,-312 "/>
<path fill="none" stroke="#d87556" stroke-width="2" d="M329,-312C329,-318 323,-324 317,-324"/>
<text text-anchor="middle" x="276" y="-303.5" font-family="sans" font-size="10.00">remove_duplicates</text>
</g>
<!-- 13&#45;&gt;21 -->
<g id="edge48" class="edge"><title>13&#45;&gt;21</title>
<path fill="none" stroke="grey" stroke-width="2" d="M276,-359.831C276,-352.131 276,-342.974 276,-334.417"/>
<polygon fill="grey" stroke="grey" points="279.5,-334.413 276,-324.413 272.5,-334.413 279.5,-334.413"/>
</g>
<!-- 14&#45;&gt;9 -->
<g id="edge26" class="edge"><title>14&#45;&gt;9</title>
<path fill="none" stroke="grey" stroke-width="2" d="M132,-215.831C132,-208.131 132,-198.974 132,-190.417"/>
<polygon fill="grey" stroke="grey" points="135.5,-190.413 132,-180.413 128.5,-190.413 135.5,-190.413"/>
</g>
<!-- 15 -->
<g id="node16" class="node"><title>15</title>
<polyline fill="none" stroke="#d8b456" stroke-width="2" stroke-dasharray="5,2" points="193,-540 143,-540 "/>
<path fill="none" stroke="#d8b456" stroke-width="2" stroke-dasharray="5,2" d="M143,-540C137,-540 131,-534 131,-528"/>
<polyline fill="none" stroke="#d8b456" stroke-width="2" stroke-dasharray="5,2" points="131,-528 131,-516 "/>
<path fill="none" stroke="#d8b456" stroke-width="2" stroke-dasharray="5,2" d="M131,-516C131,-510 137,-504 143,-504"/>
<polyline fill="none" stroke="#d8b456" stroke-width="2" stroke-dasharray="5,2" points="143,-504 193,-504 "/>
<path fill="none" stroke="#d8b456" stroke-width="2" stroke-dasharray="5,2" d="M193,-504C199,-504 205,-510 205,-516"/>
<polyline fill="none" stroke="#d8b456" stroke-width="2" stroke-dasharray="5,2" points="205,-516 205,-528 "/>
<path fill="none" stroke="#d8b456" stroke-width="2" stroke-dasharray="5,2" d="M205,-528C205,-534 199,-540 193,-540"/>
<text text-anchor="middle" x="168" y="-519.5" font-family="sans" font-size="10.00">index_bams</text>
</g>
<!-- 15&#45;&gt;8 -->
<g id="edge24" class="edge"><title>15&#45;&gt;8</title>
<path fill="none" stroke="grey" stroke-width="2" d="M158.916,-503.831C154.939,-495.877 150.185,-486.369 145.786,-477.572"/>
<polygon fill="grey" stroke="grey" points="148.809,-475.792 141.207,-468.413 142.548,-478.923 148.809,-475.792"/>
</g>
<!-- 16&#45;&gt;2 -->
<g id="edge8" class="edge"><title>16&#45;&gt;2</title>
<path fill="none" stroke="grey" stroke-width="2" d="M132,-359.831C132,-352.131 132,-342.974 132,-334.417"/>
<polygon fill="grey" stroke="grey" points="135.5,-334.413 132,-324.413 128.5,-334.413 135.5,-334.413"/>
</g>
<!-- 17&#45;&gt;4 -->
<g id="edge12" class="edge"><title>17&#45;&gt;4</title>
<path fill="none" stroke="grey" stroke-width="2" d="M275.748,-143.831C275.641,-136.131 275.514,-126.974 275.395,-118.417"/>
<polygon fill="grey" stroke="grey" points="278.894,-118.364 275.256,-108.413 271.895,-118.461 278.894,-118.364"/>
</g>
<!-- 19 -->
<g id="node20" class="node"><title>19</title>
<polyline fill="none" stroke="#88d856" stroke-width="2" stroke-dasharray="5,2" points="168,-756 62,-756 "/>
<path fill="none" stroke="#88d856" stroke-width="2" stroke-dasharray="5,2" d="M62,-756C56,-756 50,-750 50,-744"/>
<polyline fill="none" stroke="#88d856" stroke-width="2" stroke-dasharray="5,2" points="50,-744 50,-732 "/>
<path fill="none" stroke="#88d856" stroke-width="2" stroke-dasharray="5,2" d="M50,-732C50,-726 56,-720 62,-720"/>
<polyline fill="none" stroke="#88d856" stroke-width="2" stroke-dasharray="5,2" points="62,-720 168,-720 "/>
<path fill="none" stroke="#88d856" stroke-width="2" stroke-dasharray="5,2" d="M168,-720C174,-720 180,-726 180,-732"/>
<polyline fill="none" stroke="#88d856" stroke-width="2" stroke-dasharray="5,2" points="180,-732 180,-744 "/>
<path fill="none" stroke="#88d856" stroke-width="2" stroke-dasharray="5,2" d="M180,-744C180,-750 174,-756 168,-756"/>
<text text-anchor="middle" x="115" y="-735.5" font-family="sans" font-size="10.00">rename_trimmed_fastq</text>
</g>
<!-- 19&#45;&gt;11 -->
<g id="edge28" class="edge"><title>19&#45;&gt;11</title>
<path fill="none" stroke="grey" stroke-width="2" d="M115,-719.831C115,-712.131 115,-702.974 115,-694.417"/>
<polygon fill="grey" stroke="grey" points="118.5,-694.413 115,-684.413 111.5,-694.413 118.5,-694.413"/>
</g>
<!-- 20&#45;&gt;0 -->
<g id="edge4" class="edge"><title>20&#45;&gt;0</title>
<path fill="none" stroke="grey" stroke-width="2" d="M274.249,-575.824C268.414,-565.714 261.986,-552.649 259,-540 254.091,-519.204 259.019,-495.443 264.81,-477.559"/>
<polygon fill="grey" stroke="grey" points="268.145,-478.625 268.155,-468.03 261.54,-476.307 268.145,-478.625"/>
</g>
<!-- 20&#45;&gt;3 -->
<g id="edge10" class="edge"><title>20&#45;&gt;3</title>
<path fill="none" stroke="grey" stroke-width="2" d="M290.795,-575.831C292.849,-568.046 295.296,-558.773 297.576,-550.135"/>
<polygon fill="grey" stroke="grey" points="300.973,-550.975 300.141,-540.413 294.205,-549.189 300.973,-550.975"/>
</g>
<!-- 21&#45;&gt;6 -->
<g id="edge18" class="edge"><title>21&#45;&gt;6</title>
<path fill="none" stroke="grey" stroke-width="2" d="M276,-287.831C276,-280.131 276,-270.974 276,-262.417"/>
<polygon fill="grey" stroke="grey" points="279.5,-262.413 276,-252.413 272.5,-262.413 279.5,-262.413"/>
</g>
<!-- 22&#45;&gt;5 -->
<g id="edge14" class="edge"><title>22&#45;&gt;5</title>
<path fill="none" stroke="grey" stroke-width="2" d="M287.756,-935.837C284.029,-925.513 279.881,-912.24 278,-900 274.828,-879.36 277.118,-855.848 280.048,-838.033"/>
<polygon fill="grey" stroke="grey" points="283.525,-838.474 281.86,-828.011 276.636,-837.228 283.525,-838.474"/>
</g>
<!-- 27 -->
<g id="node28" class="node"><title>27</title>
<polyline fill="none" stroke="#56d882" stroke-width="2" points="417,-900 299,-900 "/>
<path fill="none" stroke="#56d882" stroke-width="2" d="M299,-900C293,-900 287,-894 287,-888"/>
<polyline fill="none" stroke="#56d882" stroke-width="2" points="287,-888 287,-876 "/>
<path fill="none" stroke="#56d882" stroke-width="2" d="M287,-876C287,-870 293,-864 299,-864"/>
<polyline fill="none" stroke="#56d882" stroke-width="2" points="299,-864 417,-864 "/>
<path fill="none" stroke="#56d882" stroke-width="2" d="M417,-864C423,-864 429,-870 429,-876"/>
<polyline fill="none" stroke="#56d882" stroke-width="2" points="429,-876 429,-888 "/>
<path fill="none" stroke="#56d882" stroke-width="2" d="M429,-888C429,-894 423,-900 417,-900"/>
<text text-anchor="middle" x="358" y="-879.5" font-family="sans" font-size="10.00">extract_nextera_barcodes</text>
</g>
<!-- 22&#45;&gt;27 -->
<g id="edge62" class="edge"><title>22&#45;&gt;27</title>
<path fill="none" stroke="grey" stroke-width="2" d="M310.898,-935.831C318.228,-927.454 327.066,-917.353 335.097,-908.175"/>
<polygon fill="grey" stroke="grey" points="337.937,-910.244 341.888,-900.413 332.669,-905.634 337.937,-910.244"/>
</g>
<!-- 23 -->
<g id="node24" class="node"><title>23</title>
<polyline fill="none" stroke="#56d882" stroke-width="2" stroke-dasharray="5,2" points="130,-900 12,-900 "/>
<path fill="none" stroke="#56d882" stroke-width="2" stroke-dasharray="5,2" d="M12,-900C6,-900 4.73695e-14,-894 3.78956e-14,-888"/>
<polyline fill="none" stroke="#56d882" stroke-width="2" stroke-dasharray="5,2" points="3.78956e-14,-888 1.89478e-14,-876 "/>
<path fill="none" stroke="#56d882" stroke-width="2" stroke-dasharray="5,2" d="M1.89478e-14,-876C9.4739e-15,-870 6,-864 12,-864"/>
<polyline fill="none" stroke="#56d882" stroke-width="2" stroke-dasharray="5,2" points="12,-864 130,-864 "/>
<path fill="none" stroke="#56d882" stroke-width="2" stroke-dasharray="5,2" d="M130,-864C136,-864 142,-870 142,-876"/>
<polyline fill="none" stroke="#56d882" stroke-width="2" stroke-dasharray="5,2" points="142,-876 142,-888 "/>
<path fill="none" stroke="#56d882" stroke-width="2" stroke-dasharray="5,2" d="M142,-888C142,-894 136,-900 130,-900"/>
<text text-anchor="middle" x="71" y="-879.5" font-family="sans" font-size="10.00">extract_nextera_barcodes</text>
</g>
<!-- 25 -->
<g id="node26" class="node"><title>25</title>
<polyline fill="none" stroke="#5692d8" stroke-width="2" stroke-dasharray="5,2" points="145,-828 85,-828 "/>
<path fill="none" stroke="#5692d8" stroke-width="2" stroke-dasharray="5,2" d="M85,-828C79,-828 73,-822 73,-816"/>
<polyline fill="none" stroke="#5692d8" stroke-width="2" stroke-dasharray="5,2" points="73,-816 73,-804 "/>
<path fill="none" stroke="#5692d8" stroke-width="2" stroke-dasharray="5,2" d="M73,-804C73,-798 79,-792 85,-792"/>
<polyline fill="none" stroke="#5692d8" stroke-width="2" stroke-dasharray="5,2" points="85,-792 145,-792 "/>
<path fill="none" stroke="#5692d8" stroke-width="2" stroke-dasharray="5,2" d="M145,-792C151,-792 157,-798 157,-804"/>
<polyline fill="none" stroke="#5692d8" stroke-width="2" stroke-dasharray="5,2" points="157,-804 157,-816 "/>
<path fill="none" stroke="#5692d8" stroke-width="2" stroke-dasharray="5,2" d="M157,-816C157,-822 151,-828 145,-828"/>
<text text-anchor="middle" x="115" y="-807.5" font-family="sans" font-size="10.00">trim_adapters</text>
</g>
<!-- 23&#45;&gt;25 -->
<g id="edge58" class="edge"><title>23&#45;&gt;25</title>
<path fill="none" stroke="grey" stroke-width="2" d="M82.1031,-863.831C87.0674,-855.708 93.0222,-845.964 98.4928,-837.012"/>
<polygon fill="grey" stroke="grey" points="101.519,-838.771 103.747,-828.413 95.5464,-835.121 101.519,-838.771"/>
</g>
<!-- 24&#45;&gt;8 -->
<g id="edge22" class="edge"><title>24&#45;&gt;8</title>
<path fill="none" stroke="grey" stroke-width="2" d="M115.858,-575.67C116.845,-557.442 118.761,-528.707 122,-504 123.098,-495.625 124.634,-486.579 126.173,-478.33"/>
<polygon fill="grey" stroke="grey" points="129.627,-478.901 128.091,-468.418 122.755,-477.571 129.627,-478.901"/>
</g>
<!-- 24&#45;&gt;15 -->
<g id="edge34" class="edge"><title>24&#45;&gt;15</title>
<path fill="none" stroke="grey" stroke-width="2" d="M128.374,-575.831C134.416,-567.623 141.676,-557.761 148.322,-548.732"/>
<polygon fill="grey" stroke="grey" points="151.336,-550.542 154.446,-540.413 145.699,-546.392 151.336,-550.542"/>
</g>
<!-- 25&#45;&gt;19 -->
<g id="edge44" class="edge"><title>25&#45;&gt;19</title>
<path fill="none" stroke="grey" stroke-width="2" d="M115,-791.831C115,-784.131 115,-774.974 115,-766.417"/>
<polygon fill="grey" stroke="grey" points="118.5,-766.413 115,-756.413 111.5,-766.413 118.5,-766.413"/>
</g>
<!-- 26&#45;&gt;18 -->
<g id="edge42" class="edge"><title>26&#45;&gt;18</title>
<path fill="none" stroke="grey" stroke-width="2" d="M150.916,-71.8314C159.344,-63.2848 169.541,-52.9443 178.736,-43.6198"/>
<polygon fill="grey" stroke="grey" points="181.313,-45.9912 185.842,-36.4133 176.329,-41.0761 181.313,-45.9912"/>
</g>
<!-- 27&#45;&gt;5 -->
<g id="edge16" class="edge"><title>27&#45;&gt;5</title>
<path fill="none" stroke="grey" stroke-width="2" d="M339.831,-863.831C331.285,-855.285 320.944,-844.944 311.62,-835.62"/>
<polygon fill="grey" stroke="grey" points="313.959,-833.009 304.413,-828.413 309.009,-837.959 313.959,-833.009"/>
</g>
<!-- 28&#45;&gt;23 -->
<g id="edge52" class="edge"><title>28&#45;&gt;23</title>
<path fill="none" stroke="grey" stroke-width="2" d="M117.355,-935.831C110.141,-927.454 101.443,-917.353 93.5395,-908.175"/>
<polygon fill="grey" stroke="grey" points="96.0333,-905.707 86.8559,-900.413 90.7289,-910.275 96.0333,-905.707"/>
</g>
<!-- 28&#45;&gt;25 -->
<g id="edge56" class="edge"><title>28&#45;&gt;25</title>
<path fill="none" stroke="grey" stroke-width="2" d="M141.812,-935.818C149.51,-917.457 158.388,-888.401 151,-864 148.044,-854.236 142.675,-844.623 136.97,-836.276"/>
<polygon fill="grey" stroke="grey" points="139.713,-834.097 130.99,-828.083 134.059,-838.224 139.713,-834.097"/>
</g>
</g>
</svg>
